<svg width="38" height="38" viewBox="0 0 38 38" fill="none" xmlns="http://www.w3.org/2000/svg">
<path fill-rule="evenodd" clip-rule="evenodd" d="M18.6452 37.2903C28.9426 37.2903 37.2903 28.9426 37.2903 18.6452C37.2903 8.34772 28.9426 0 18.6452 0C8.34772 0 0 8.34772 0 18.6452C0 28.9426 8.34772 37.2903 18.6452 37.2903ZM28.1459 15.3778L30.3085 13.1583C31.1904 12.2531 31.1904 10.7895 30.3085 9.88918L27.4891 6.99563C26.6072 6.09531 25.1811 6.09531 24.3038 6.99563L22.1412 9.21514C21.9207 9.44143 21.9207 9.80733 22.1412 10.0336L27.3484 15.3778C27.5689 15.6041 27.9254 15.6041 28.1459 15.3778ZM7.96461 23.7647L20.2835 11.1217C20.504 10.8954 20.8605 10.8954 21.0857 11.1217L26.2929 16.4659C26.5134 16.6921 26.5134 17.0581 26.2929 17.2843L13.974 29.9274L8.27423 30.9529C7.50488 31.0877 6.83405 30.404 6.97009 29.6144L7.96461 23.7647ZM12.773 21.7282C12.515 21.993 12.515 22.4167 12.773 22.6815C13.031 22.9463 13.4439 22.9463 13.7019 22.6815L20.9262 15.267C21.1842 15.0022 21.1842 14.5786 20.9262 14.3138C20.6682 14.049 20.2554 14.049 19.9974 14.3138L12.773 21.7282ZM13.3313 26.7305H11.0795V24.4195H9.37664L8.84655 27.5249L10.3055 29.0222L13.3313 28.4782V26.7305Z" fill="#FF8833"/>
</svg>
