<svg width="60" height="46" viewBox="0 0 60 46" fill="none" xmlns="http://www.w3.org/2000/svg">
<path d="M29.2045 11.9336L10.0008 27.5271V44.357C10.0008 44.7927 10.1764 45.2106 10.4889 45.5188C10.8014 45.8269 11.2253 46 11.6673 46L23.3393 45.9702C23.7799 45.968 24.2016 45.794 24.5124 45.4861C24.8231 45.1782 24.9976 44.7615 24.9976 44.3272V34.4987C24.9976 34.063 25.1731 33.645 25.4857 33.3369C25.7982 33.0288 26.2221 32.8557 26.6641 32.8557H33.3302C33.7722 32.8557 34.1961 33.0288 34.5087 33.3369C34.8212 33.645 34.9968 34.063 34.9968 34.4987V44.32C34.9961 44.5362 35.0387 44.7504 35.1221 44.9503C35.2056 45.1503 35.3282 45.332 35.4831 45.4851C35.6379 45.6382 35.8218 45.7597 36.0244 45.8426C36.2269 45.9255 36.444 45.9682 36.6633 45.9682L48.3312 46C48.7732 46 49.1971 45.8269 49.5096 45.5188C49.8221 45.2106 49.9977 44.7927 49.9977 44.357V27.5158L30.7981 11.9336C30.5724 11.7542 30.2912 11.6564 30.0013 11.6564C29.7114 11.6564 29.4302 11.7542 29.2045 11.9336ZM59.5386 22.5322L50.831 15.4559V1.23228C50.831 0.905459 50.6993 0.592024 50.4649 0.360927C50.2305 0.129829 49.9126 0 49.5811 0H43.7482C43.4167 0 43.0988 0.129829 42.8644 0.360927C42.63 0.592024 42.4983 0.905459 42.4983 1.23228V8.6886L33.173 1.12446C32.278 0.398416 31.1551 0.00145136 29.9961 0.00145136C28.8372 0.00145136 27.7142 0.398416 26.8193 1.12446L0.45361 22.5322C0.327044 22.6354 0.222331 22.7621 0.145453 22.9051C0.0685758 23.0482 0.0210408 23.2048 0.00556432 23.3659C-0.00991221 23.5271 0.00697307 23.6897 0.0552553 23.8444C0.103538 23.9992 0.182271 24.143 0.286956 24.2677L2.943 27.4511C3.0474 27.5763 3.17581 27.6799 3.32089 27.756C3.46596 27.8322 3.62485 27.8794 3.78845 27.895C3.95205 27.9105 4.11716 27.8941 4.27431 27.8467C4.43147 27.7992 4.5776 27.7217 4.70432 27.6185L29.2045 7.72332C29.4302 7.54394 29.7114 7.44613 30.0013 7.44613C30.2912 7.44613 30.5724 7.54394 30.7981 7.72332L55.2994 27.6185C55.4259 27.7217 55.5718 27.7993 55.7287 27.8469C55.8857 27.8945 56.0506 27.9112 56.2141 27.8959C56.3775 27.8806 56.5364 27.8338 56.6814 27.758C56.8265 27.6822 56.9551 27.579 57.0597 27.4542L59.7157 24.2708C59.8203 24.1453 59.8987 24.0008 59.9464 23.8454C59.9941 23.69 60.0102 23.5268 59.9937 23.3652C59.9773 23.2037 59.9286 23.0469 59.8505 22.904C59.7724 22.761 59.6664 22.6347 59.5386 22.5322Z" fill="white"/>
</svg>
