<svg width="45" height="35" viewBox="0 0 45 35" fill="none" xmlns="http://www.w3.org/2000/svg">
<path d="M37.5 30V31.25C37.5 33.3211 35.8211 35 33.75 35H3.75C1.67891 35 0 33.3211 0 31.25V11.25C0 9.17891 1.67891 7.5 3.75 7.5H5V23.75C5 27.1963 7.80375 30 11.25 30H37.5ZM45 23.75V3.75C45 1.67891 43.3211 0 41.25 0H11.25C9.17891 0 7.5 1.67891 7.5 3.75V23.75C7.5 25.8211 9.17891 27.5 11.25 27.5H41.25C43.3211 27.5 45 25.8211 45 23.75ZM20 7.5C20 9.57109 18.3211 11.25 16.25 11.25C14.1789 11.25 12.5 9.57109 12.5 7.5C12.5 5.42891 14.1789 3.75 16.25 3.75C18.3211 3.75 20 5.42891 20 7.5ZM12.5 18.75L16.8371 14.4129C17.2032 14.0468 17.7968 14.0468 18.163 14.4129L21.25 17.5L31.8371 6.91289C32.2032 6.5468 32.7968 6.5468 33.163 6.91289L40 13.75V22.5H12.5V18.75Z" fill="black"/>
</svg>
