<svg width="39" height="39" viewBox="0 0 39 39" fill="none" xmlns="http://www.w3.org/2000/svg">
<path d="M24.8787 14.1216C29.4297 18.6774 29.3673 25.9814 24.9061 30.4673C24.8977 30.4764 24.8878 30.4864 24.8787 30.4955L19.7599 35.6142C15.2452 40.1289 7.90005 40.1283 3.38603 35.6142C-1.12868 31.1003 -1.12868 23.7543 3.38603 19.2403L6.21246 16.4139C6.96199 15.6644 8.2528 16.1625 8.2915 17.2218C8.34086 18.5717 8.58293 19.9279 9.0296 21.2376C9.18088 21.6811 9.07279 22.1717 8.74145 22.503L7.74458 23.4999C5.60979 25.6347 5.54284 29.1107 7.65661 31.2664C9.79125 33.4433 13.2999 33.4562 15.4509 31.3052L20.5696 26.1872C22.717 24.0399 22.708 20.569 20.5696 18.4306C20.2877 18.1493 20.0038 17.9306 19.7819 17.7779C19.625 17.6702 19.4955 17.5272 19.4036 17.3605C19.3117 17.1938 19.2601 17.0079 19.2528 16.8177C19.2226 16.0128 19.5078 15.1833 20.1438 14.5473L21.7476 12.9435C22.1681 12.523 22.8278 12.4713 23.3155 12.8117C23.874 13.2016 24.397 13.64 24.8787 14.1216ZM35.614 3.38577C31.0999 -1.12833 23.7548 -1.12894 19.2401 3.38577L14.1213 8.50452C14.1122 8.51366 14.1023 8.52356 14.0939 8.5327C9.63281 13.0186 9.57027 20.3227 14.1213 24.8784C14.6029 25.36 15.126 25.7983 15.6844 26.1883C16.1721 26.5286 16.8319 26.4769 17.2524 26.0564L18.8561 24.4526C19.4921 23.8166 19.7773 22.9872 19.7471 22.1822C19.7398 21.992 19.6882 21.8062 19.5963 21.6394C19.5045 21.4727 19.3749 21.3298 19.218 21.222C18.9962 21.0693 18.7122 20.8507 18.4303 20.5693C16.2919 18.4309 16.2829 14.9601 18.4303 12.8127L23.549 7.69474C25.7 5.54372 29.2086 5.55667 31.3433 7.73359C33.4571 9.88925 33.3902 13.3653 31.2553 15.5001L30.2585 16.4969C29.9271 16.8283 29.819 17.3188 29.9703 17.7623C30.417 19.072 30.6591 20.4282 30.7084 21.7782C30.7472 22.8374 32.0379 23.3356 32.7875 22.586L35.6139 19.7596C40.1287 15.2457 40.1287 7.89972 35.614 3.38577Z" fill="black"/>
</svg>
