<svg width="33" height="33" viewBox="0 0 33 33" fill="none" xmlns="http://www.w3.org/2000/svg">
<path d="M25.7911 15.1422H7.43556C5.98734 15.1422 4.81334 16.3162 4.81334 17.7644V26.9422C4.81334 28.3904 5.98734 29.5644 7.43556 29.5644H25.7911C27.2393 29.5644 28.4133 28.3904 28.4133 26.9422V17.7644C28.4133 16.3162 27.2393 15.1422 25.7911 15.1422Z" stroke="#5B0B3B" stroke-linecap="round" stroke-linejoin="round"/>
<path d="M10.0578 15.1422V9.89777C10.0578 8.15913 10.7484 6.4917 11.9779 5.26229C13.2073 4.03289 14.8747 3.34222 16.6133 3.34222C18.352 3.34222 20.0194 4.03289 21.2488 5.26229C22.4782 6.4917 23.1689 8.15913 23.1689 9.89777V15.1422" stroke="#5B0B3B" stroke-linecap="round" stroke-linejoin="round"/>
</svg>
