<svg width="38" height="38" viewBox="0 0 37 37" fill="none" xmlns="http://www.w3.org/2000/svg">
<path fill-rule="evenodd" clip-rule="evenodd" d="M18.5 37C28.7173 37 37 28.7173 37 18.5C37 8.28271 28.7173 0 18.5 0C8.28271 0 0 8.28271 0 18.5C0 28.7173 8.28271 37 18.5 37ZM7.36609 20.1517L15.4911 28.2767C15.9792 28.7648 16.7707 28.7648 17.2589 28.2767L31.6339 13.9017C32.122 13.4135 32.122 12.622 31.6339 12.1339L29.8661 10.3661C29.378 9.87799 28.5865 9.87799 28.0984 10.3661L16.375 22.0894L10.9016 16.6161C10.4135 16.1279 9.62195 16.1279 9.13385 16.6161L7.36609 18.3839C6.87799 18.8721 6.87799 19.6635 7.36609 20.1517Z" fill="#00F418"/>
</svg>
