<svg width="789" height="183" viewBox="0 0 789 183" fill="none" xmlns="http://www.w3.org/2000/svg">
<path d="M238.052 81.5568C238.1 80.3447 237.744 79.4119 236.987 78.7585C236.239 78.1051 235.121 77.7784 233.635 77.7784C232.612 77.7784 231.722 77.9252 230.964 78.2187C230.207 78.5028 229.6 78.9005 229.146 79.4119C228.691 79.9138 228.412 80.4867 228.308 81.1306C228.204 81.661 228.242 82.1297 228.421 82.5369C228.601 82.9346 228.885 83.2755 229.274 83.5596C229.671 83.8437 230.135 84.0899 230.666 84.2983C231.206 84.4971 231.774 84.6676 232.37 84.8096L234.885 85.4488C236.068 85.7235 237.148 86.0975 238.123 86.571C239.099 87.035 239.922 87.6127 240.595 88.3039C241.267 88.9858 241.745 89.7954 242.029 90.7329C242.314 91.6704 242.356 92.75 242.157 93.9716C241.854 95.7329 241.149 97.267 240.041 98.5738C238.942 99.8712 237.498 100.88 235.708 101.599C233.919 102.31 231.84 102.665 229.473 102.665C227.143 102.665 225.173 102.31 223.564 101.599C221.963 100.88 220.794 99.8191 220.055 98.4176C219.326 97.0066 219.108 95.2736 219.402 93.2187H225.211C225.107 94.1941 225.254 95.0085 225.652 95.6619C226.059 96.3153 226.655 96.8077 227.441 97.1392C228.237 97.4611 229.17 97.6221 230.24 97.6221C231.31 97.6221 232.261 97.4706 233.095 97.1676C233.938 96.8551 234.619 96.4242 235.14 95.875C235.671 95.3163 235.997 94.6723 236.12 93.9431C236.234 93.2803 236.13 92.7216 235.808 92.267C235.495 91.803 234.989 91.4147 234.288 91.1022C233.597 90.7803 232.744 90.4914 231.731 90.2358L228.663 89.4403C226.333 88.8342 224.567 87.9015 223.365 86.642C222.162 85.3731 221.736 83.6685 222.086 81.5284C222.38 79.7765 223.109 78.2424 224.274 76.9261C225.439 75.6098 226.906 74.5871 228.677 73.8579C230.457 73.1288 232.403 72.7642 234.515 72.7642C236.655 72.7642 238.464 73.1335 239.941 73.8721C241.419 74.6108 242.493 75.643 243.166 76.9687C243.848 78.285 244.061 79.8144 243.805 81.5568H238.052ZM254.424 73.1619H261.796L266.64 92.9772H266.981L278.387 73.1619H285.759L280.93 102.253H275.134L278.316 83.1335H278.061L267.293 102.125H263.288L258.842 83.0625H258.6L255.39 102.253H249.595L254.424 73.1619ZM295.491 102.253H289.07L303.985 73.1619H311.656L316.897 102.253H310.477L306.869 79.6818H306.641L295.491 102.253ZM297.096 90.8181H312.621L311.826 95.5199H296.3L297.096 90.8181ZM325.045 102.253L329.874 73.1619H341.238C343.444 73.1619 345.258 73.5502 346.678 74.3267C348.099 75.1032 349.098 76.2017 349.675 77.6221C350.253 79.0426 350.381 80.7092 350.059 82.6221C349.746 84.5445 349.06 86.1969 347.999 87.5795C346.948 88.9621 345.575 90.0274 343.88 90.7755C342.185 91.5142 340.22 91.8835 337.985 91.8835H330.286L331.11 87.0397H337.857C339.06 87.0397 340.083 86.874 340.925 86.5426C341.768 86.2111 342.436 85.7187 342.928 85.0653C343.421 84.4119 343.747 83.5975 343.908 82.6221C344.06 81.6467 343.998 80.8229 343.724 80.1505C343.449 79.4687 342.947 78.9526 342.218 78.6022C341.489 78.2519 340.528 78.0767 339.334 78.0767H335.059L331.025 102.253H325.045ZM342.815 89.0284L347.843 102.253H341.224L336.337 89.0284H342.815ZM358.945 78.1193L359.769 73.1619H383.547L382.709 78.1193H373.789L369.797 102.253H363.86L367.866 78.1193H358.945ZM401.345 102.253L406.174 73.1619H425.649L424.811 78.1193H411.33L410.166 85.2216H422.637L421.813 90.1647H409.328L408.163 97.2954H421.714L420.89 102.253H401.345ZM440.554 73.1619L444.844 83.2187H445.071L452.727 73.1619H459.702L448.423 87.7074L455.057 102.253H448.281L443.892 92.2102H443.665L435.938 102.253H428.949L440.497 87.7074L433.935 73.1619H440.554ZM463.396 102.253L468.226 73.1619H479.589C481.796 73.1619 483.605 73.5833 485.016 74.4261C486.426 75.2594 487.416 76.4147 487.984 77.892C488.552 79.3693 488.676 81.0644 488.354 82.9772C488.041 84.9091 487.35 86.6089 486.28 88.0767C485.219 89.5445 483.832 90.6903 482.118 91.5142C480.413 92.338 478.439 92.75 476.194 92.75H468.893L469.689 87.9204H476.038C477.25 87.9204 478.287 87.7121 479.149 87.2954C480.011 86.8788 480.693 86.3011 481.194 85.5625C481.706 84.8144 482.042 83.9526 482.203 82.9772C482.355 81.9924 482.298 81.1354 482.033 80.4062C481.777 79.677 481.289 79.1089 480.569 78.7017C479.85 78.285 478.889 78.0767 477.686 78.0767H473.41L469.376 102.253H463.396ZM522.804 88.0909C522.284 91.1969 521.261 93.8342 519.736 96.0028C518.221 98.1714 516.375 99.8238 514.196 100.96C512.018 102.087 509.675 102.651 507.165 102.651C504.533 102.651 502.265 102.049 500.361 100.847C498.458 99.6344 497.08 97.892 496.228 95.6193C495.385 93.3466 495.229 90.6003 495.759 87.3806C496.27 84.2746 497.284 81.6325 498.799 79.4545C500.323 77.2765 502.179 75.6193 504.367 74.4829C506.564 73.3371 508.927 72.7642 511.455 72.7642C514.069 72.7642 516.322 73.3702 518.216 74.5824C520.12 75.7945 521.493 77.5464 522.336 79.838C523.178 82.1202 523.335 84.8712 522.804 88.0909ZM516.853 87.3806C517.184 85.3636 517.165 83.6638 516.796 82.2812C516.436 80.8986 515.778 79.8522 514.821 79.142C513.865 78.4318 512.667 78.0767 511.228 78.0767C509.646 78.0767 508.197 78.4697 506.881 79.2556C505.574 80.0322 504.471 81.1685 503.571 82.6647C502.672 84.1515 502.052 85.9602 501.711 88.0909C501.36 90.1269 501.374 91.8314 501.753 93.2045C502.132 94.5681 502.804 95.6003 503.77 96.3011C504.736 96.9924 505.939 97.338 507.378 97.338C508.941 97.338 510.371 96.9545 511.668 96.1875C512.975 95.411 514.078 94.2841 514.978 92.8068C515.877 91.32 516.502 89.5113 516.853 87.3806Z" fill="#5B0B3B"/>
<path d="M238.052 81.5568L237.053 81.5178L237.012 82.5568H238.052V81.5568ZM236.987 78.7585L236.329 79.5117L236.334 79.5157L236.987 78.7585ZM230.964 78.2187L231.315 79.1551L231.325 79.1512L230.964 78.2187ZM229.146 79.4119L229.887 80.0832L229.893 80.0763L229.146 79.4119ZM228.308 81.1306L229.289 81.3234L229.292 81.3069L229.295 81.2903L228.308 81.1306ZM228.421 82.5369L227.507 82.9411L227.51 82.9491L228.421 82.5369ZM229.274 83.5596L228.683 84.3667L228.693 84.3734L229.274 83.5596ZM230.666 84.2983L230.3 85.229L230.31 85.2329L230.32 85.2366L230.666 84.2983ZM232.37 84.8096L232.617 83.8405L232.609 83.8386L232.602 83.8368L232.37 84.8096ZM234.885 85.4488L234.638 86.418L234.648 86.4206L234.659 86.423L234.885 85.4488ZM238.123 86.571L237.686 87.4706L237.694 87.474L238.123 86.571ZM240.595 88.3039L239.878 89.0012L239.883 89.0061L240.595 88.3039ZM242.029 90.7329L242.986 90.4429L242.986 90.4429L242.029 90.7329ZM242.157 93.9716L243.143 94.1411L243.144 94.1322L242.157 93.9716ZM240.041 98.5738L239.278 97.9271L239.278 97.9276L240.041 98.5738ZM235.708 101.599L236.077 102.529L236.081 102.527L235.708 101.599ZM223.564 101.599L223.153 102.511L223.16 102.514L223.564 101.599ZM220.055 98.4176L219.167 98.8767L219.17 98.8838L220.055 98.4176ZM219.402 93.2187V92.2187H218.534L218.412 93.0773L219.402 93.2187ZM225.211 93.2187L226.206 93.3249L226.324 92.2187H225.211V93.2187ZM225.652 95.6619L224.797 96.1819L224.803 96.1908L225.652 95.6619ZM227.441 97.1392L227.053 98.0606L227.059 98.0634L227.066 98.0661L227.441 97.1392ZM233.095 97.1676L233.437 98.1074L233.442 98.1052L233.095 97.1676ZM235.14 95.875L234.415 95.1865L234.415 95.1869L235.14 95.875ZM236.12 93.9431L235.135 93.7742L235.134 93.7767L236.12 93.9431ZM235.808 92.267L234.978 92.8256L234.985 92.8354L234.992 92.845L235.808 92.267ZM234.288 91.1022L233.866 92.0087L233.873 92.0122L233.881 92.0155L234.288 91.1022ZM231.731 90.2358L231.48 91.2038L231.486 91.2054L231.731 90.2358ZM228.663 89.4403L228.411 90.4081L228.412 90.4083L228.663 89.4403ZM223.365 86.642L222.639 87.3299L222.641 87.3326L223.365 86.642ZM222.086 81.5284L221.1 81.3631L221.099 81.3668L222.086 81.5284ZM224.274 76.9261L223.525 76.2634L223.525 76.2634L224.274 76.9261ZM228.677 73.8579L228.298 72.9325L228.296 72.9332L228.677 73.8579ZM239.941 73.8721L239.494 74.7666L239.494 74.7666L239.941 73.8721ZM243.166 76.9687L242.274 77.421L242.278 77.4287L243.166 76.9687ZM243.805 81.5568V82.5568H244.669L244.794 81.702L243.805 81.5568ZM239.051 81.5958C239.108 80.1511 238.677 78.8961 237.64 78.0012L236.334 79.5157C236.811 79.9277 237.091 80.5382 237.053 81.5178L239.051 81.5958ZM237.645 78.0053C236.642 77.13 235.247 76.7784 233.635 76.7784V78.7784C234.996 78.7784 235.835 79.0802 236.329 79.5117L237.645 78.0053ZM233.635 76.7784C232.519 76.7784 231.501 76.9382 230.603 77.2863L231.325 79.1512C231.942 78.9121 232.705 78.7784 233.635 78.7784V76.7784ZM230.613 77.2824C229.731 77.6132 228.979 78.0943 228.398 78.7475L229.893 80.0763C230.222 79.7068 230.682 79.3924 231.315 79.155L230.613 77.2824ZM228.405 78.7406C227.826 79.38 227.457 80.1288 227.321 80.971L229.295 81.2903C229.367 80.8446 229.557 80.4476 229.887 80.0832L228.405 78.7406ZM227.327 80.9379C227.192 81.6256 227.228 82.3094 227.507 82.9411L229.336 82.1327C229.255 81.95 229.216 81.6963 229.289 81.3234L227.327 80.9379ZM227.51 82.9491C227.768 83.5195 228.17 83.9914 228.683 84.3667L229.864 82.7526C229.601 82.5596 229.434 82.3498 229.333 82.1247L227.51 82.9491ZM228.693 84.3734C229.167 84.7123 229.706 84.9955 230.3 85.229L231.031 83.3675C230.565 83.1844 230.176 82.9752 229.855 82.7459L228.693 84.3734ZM230.32 85.2366C230.9 85.4501 231.506 85.6318 232.139 85.7824L232.602 83.8368C232.042 83.7034 231.512 83.5442 231.012 83.3599L230.32 85.2366ZM232.124 85.7788L234.638 86.418L235.131 84.4797L232.617 83.8405L232.124 85.7788ZM234.659 86.423C235.778 86.6827 236.786 87.0334 237.686 87.4706L238.56 85.6714C237.51 85.1616 236.358 84.7642 235.111 84.4747L234.659 86.423ZM237.694 87.474C238.575 87.8931 239.298 88.4046 239.878 89.0012L241.312 87.6067C240.547 86.8207 239.623 86.1769 238.553 85.668L237.694 87.474ZM239.883 89.0061C240.439 89.5697 240.834 90.2369 241.072 91.0229L242.986 90.4429C242.656 89.3539 242.096 88.4018 241.307 87.6018L239.883 89.0061ZM241.072 91.0229C241.302 91.7812 241.351 92.7013 241.17 93.8109L243.144 94.1322C243.361 92.7987 243.325 91.5597 242.986 90.4429L241.072 91.0229ZM241.172 93.802C240.898 95.3952 240.265 96.7626 239.278 97.9271L240.804 99.2205C242.032 97.7714 242.811 96.0706 243.143 94.1411L241.172 93.802ZM239.278 97.9276C238.298 99.0849 236.995 100.004 235.335 100.672L236.081 102.527C238.002 101.755 239.587 100.657 240.804 99.22L239.278 97.9276ZM235.34 100.67C233.691 101.324 231.742 101.665 229.473 101.665V103.665C231.938 103.665 234.147 103.295 236.077 102.529L235.34 100.67ZM229.473 101.665C227.239 101.665 225.416 101.324 223.967 100.684L223.16 102.514C224.931 103.296 227.047 103.665 229.473 103.665V101.665ZM223.974 100.687C222.554 100.049 221.563 99.1341 220.94 97.9513L219.17 98.8838C220.024 100.504 221.373 101.711 223.153 102.511L223.974 100.687ZM220.943 97.9585C220.335 96.7816 220.118 95.272 220.392 93.3601L218.412 93.0773C218.098 95.2753 218.316 97.2316 219.167 98.8767L220.943 97.9585ZM219.402 94.2187H225.211V92.2187H219.402V94.2187ZM224.217 93.1125C224.096 94.2441 224.257 95.2936 224.797 96.1818L226.506 95.142C226.251 94.7234 226.118 94.1441 226.206 93.3249L224.217 93.1125ZM224.803 96.1908C225.331 97.0382 226.098 97.658 227.053 98.0606L227.83 96.2177C227.213 95.9575 226.787 95.5924 226.5 95.133L224.803 96.1908ZM227.066 98.0661C228.006 98.4466 229.072 98.6221 230.24 98.6221V96.6221C229.268 96.6221 228.467 96.4756 227.817 96.2122L227.066 98.0661ZM230.24 98.6221C231.403 98.6221 232.474 98.4575 233.437 98.1074L232.753 96.2278C232.049 96.4837 231.217 96.6221 230.24 96.6221V98.6221ZM233.442 98.1052C234.402 97.7494 235.222 97.2422 235.866 96.5631L234.415 95.1869C234.017 95.6062 233.473 95.9607 232.747 96.23L233.442 98.1052ZM235.866 96.5634C236.527 95.8668 236.949 95.0433 237.106 94.1096L235.134 93.7767C235.046 94.3013 234.814 94.7657 234.415 95.1865L235.866 96.5634ZM237.106 94.1121C237.255 93.2456 237.13 92.4038 236.624 91.689L234.992 92.845C235.129 93.0393 235.213 93.315 235.135 93.7742L237.106 94.1121ZM236.637 91.7084C236.188 91.0413 235.506 90.5504 234.695 90.1889L233.881 92.0155C234.472 92.279 234.803 92.5647 234.978 92.8256L236.637 91.7084ZM234.71 90.1957C233.945 89.8395 233.029 89.532 231.976 89.2662L231.486 91.2054C232.459 91.4509 233.248 91.7211 233.866 92.0087L234.71 90.1957ZM231.982 89.2678L228.914 88.4723L228.412 90.4083L231.48 91.2038L231.982 89.2678ZM228.915 88.4725C226.699 87.8961 225.122 87.0345 224.088 85.9514L222.641 87.3326C224.013 88.7685 225.968 89.7724 228.411 90.4081L228.915 88.4725ZM224.09 85.9541C223.154 84.9663 222.76 83.604 223.073 81.6899L221.099 81.3668C220.712 83.7331 221.17 85.7798 222.639 87.3299L224.09 85.9541ZM223.072 81.6936C223.335 80.1244 223.983 78.7632 225.023 77.5888L223.525 76.2634C222.235 77.7216 221.424 79.4285 221.1 81.3631L223.072 81.6936ZM225.023 77.5888C226.077 76.3967 227.415 75.459 229.058 74.7826L228.296 72.9332C226.397 73.7152 224.8 74.8229 223.525 76.2634L225.023 77.5888ZM229.056 74.7833C230.705 74.108 232.521 73.7642 234.515 73.7642V71.7642C232.286 71.7642 230.21 72.1495 228.298 72.9325L229.056 74.7833ZM234.515 73.7642C236.544 73.7642 238.191 74.1148 239.494 74.7666L240.389 72.9777C238.738 72.1522 236.766 71.7642 234.515 71.7642V73.7642ZM239.494 74.7666C240.802 75.4205 241.709 76.3077 242.274 77.421L244.058 76.5164C243.278 74.9782 242.035 73.801 240.389 72.9777L239.494 74.7666ZM242.278 77.4287C242.846 78.5259 243.047 79.8365 242.816 81.4116L244.794 81.702C245.075 79.7922 244.849 78.0441 244.054 76.5088L242.278 77.4287ZM243.805 80.5568H238.052V82.5568H243.805V80.5568ZM254.424 73.1619V72.1619H253.577L253.438 72.9981L254.424 73.1619ZM261.796 73.1619L262.768 72.9244L262.581 72.1619H261.796V73.1619ZM266.64 92.9772L265.669 93.2147L265.855 93.9772H266.64V92.9772ZM266.981 92.9772V93.9772H267.559L267.848 93.4761L266.981 92.9772ZM278.387 73.1619V72.1619H277.809L277.521 72.663L278.387 73.1619ZM285.759 73.1619L286.746 73.3257L286.939 72.1619H285.759V73.1619ZM280.93 102.253V103.253H281.778L281.916 102.417L280.93 102.253ZM275.134 102.253L274.148 102.089L273.954 103.253H275.134V102.253ZM278.316 83.1335L279.303 83.2977L279.496 82.1335H278.316V83.1335ZM278.061 83.1335V82.1335H277.478L277.191 82.6403L278.061 83.1335ZM267.293 102.125V103.125H267.876L268.163 102.618L267.293 102.125ZM263.288 102.125L262.314 102.352L262.494 103.125H263.288V102.125ZM258.842 83.0625L259.816 82.8353L259.635 82.0625H258.842V83.0625ZM258.6 83.0625V82.0625H257.754L257.614 82.8975L258.6 83.0625ZM255.39 102.253V103.253H256.237L256.376 102.418L255.39 102.253ZM249.595 102.253L248.608 102.089L248.415 103.253H249.595V102.253ZM254.424 74.1619H261.796V72.1619H254.424V74.1619ZM260.825 73.3994L265.669 93.2147L267.611 92.7398L262.768 72.9244L260.825 73.3994ZM266.64 93.9772H266.981V91.9772H266.64V93.9772ZM267.848 93.4761L279.254 73.6608L277.521 72.663L266.114 92.4784L267.848 93.4761ZM278.387 74.1619H285.759V72.1619H278.387V74.1619ZM284.773 72.9981L279.943 102.089L281.916 102.417L286.746 73.3257L284.773 72.9981ZM280.93 101.253H275.134V103.253H280.93V101.253ZM276.121 102.417L279.303 83.2977L277.33 82.9693L274.148 102.089L276.121 102.417ZM278.316 82.1335H278.061V84.1335H278.316V82.1335ZM277.191 82.6403L266.424 101.632L268.163 102.618L278.93 83.6267L277.191 82.6403ZM267.293 101.125H263.288V103.125H267.293V101.125ZM264.262 101.898L259.816 82.8353L257.868 83.2896L262.314 102.352L264.262 101.898ZM258.842 82.0625H258.6V84.0625H258.842V82.0625ZM257.614 82.8975L254.404 102.088L256.376 102.418L259.587 83.2275L257.614 82.8975ZM255.39 101.253H249.595V103.253H255.39V101.253ZM250.581 102.417L255.411 73.3257L253.438 72.9981L248.608 102.089L250.581 102.417ZM295.491 102.253V103.253H296.112L296.387 102.696L295.491 102.253ZM289.07 102.253L288.18 101.797L287.434 103.253H289.07V102.253ZM303.985 73.1619V72.1619H303.374L303.095 72.7057L303.985 73.1619ZM311.656 73.1619L312.64 72.9846L312.491 72.1619H311.656V73.1619ZM316.897 102.253V103.253H318.093L317.881 102.075L316.897 102.253ZM310.477 102.253L309.489 102.411L309.624 103.253H310.477V102.253ZM306.869 79.6818L307.856 79.5239L307.721 78.6818H306.869V79.6818ZM306.641 79.6818V78.6818H306.02L305.745 79.2389L306.641 79.6818ZM297.096 90.8181V89.8181H296.251L296.11 90.6513L297.096 90.8181ZM312.621 90.8181L313.607 90.985L313.805 89.8181H312.621V90.8181ZM311.826 95.5199V96.5199H312.671L312.812 95.6867L311.826 95.5199ZM296.3 95.5199L295.314 95.353L295.117 96.5199H296.3V95.5199ZM295.491 101.253H289.07V103.253H295.491V101.253ZM289.96 102.709L304.875 73.6181L303.095 72.7057L288.18 101.797L289.96 102.709ZM303.985 74.1619H311.656V72.1619H303.985V74.1619ZM310.671 73.3392L315.913 102.43L317.881 102.075L312.64 72.9846L310.671 73.3392ZM316.897 101.253H310.477V103.253H316.897V101.253ZM311.464 102.095L307.856 79.5239L305.881 79.8396L309.489 102.411L311.464 102.095ZM306.869 78.6818H306.641V80.6818H306.869V78.6818ZM305.745 79.2389L294.594 101.81L296.387 102.696L307.538 80.1247L305.745 79.2389ZM297.096 91.8181H312.621V89.8181H297.096V91.8181ZM311.635 90.6513L310.84 95.353L312.812 95.6867L313.607 90.985L311.635 90.6513ZM311.826 94.5199H296.3V96.5199H311.826V94.5199ZM297.286 95.6867L298.082 90.985L296.11 90.6513L295.314 95.353L297.286 95.6867ZM325.045 102.253L324.058 102.089L323.865 103.253H325.045V102.253ZM329.874 73.1619V72.1619H329.027L328.888 72.9981L329.874 73.1619ZM346.678 74.3267L346.198 75.2041L346.198 75.2041L346.678 74.3267ZM350.059 82.6221L349.073 82.4561L349.072 82.4617L350.059 82.6221ZM347.999 87.5795L347.206 86.9708L347.203 86.9743L347.999 87.5795ZM343.88 90.7755L344.279 91.6923L344.284 91.6904L343.88 90.7755ZM330.286 91.8835L329.3 91.7158L329.102 92.8835H330.286V91.8835ZM331.11 87.0397V86.0397H330.266L330.124 86.8721L331.11 87.0397ZM343.908 82.6221L344.895 82.785L344.896 82.7756L343.908 82.6221ZM343.724 80.1505L342.796 80.5241L342.798 80.5287L343.724 80.1505ZM342.218 78.6022L342.651 77.7009L342.651 77.7009L342.218 78.6022ZM335.059 78.0767V77.0767H334.212L334.072 77.9121L335.059 78.0767ZM331.025 102.253V103.253H331.872L332.011 102.417L331.025 102.253ZM342.815 89.0284L343.749 88.673L343.504 88.0284H342.815V89.0284ZM347.843 102.253V103.253H349.293L348.778 101.897L347.843 102.253ZM341.224 102.253L340.286 102.599L340.527 103.253H341.224V102.253ZM336.337 89.0284V88.0284H334.902L335.399 89.375L336.337 89.0284ZM326.031 102.417L330.861 73.3257L328.888 72.9981L324.058 102.089L326.031 102.417ZM329.874 74.1619H341.238V72.1619H329.874V74.1619ZM341.238 74.1619C343.335 74.1619 344.969 74.5319 346.198 75.2041L347.158 73.4492C345.547 72.5684 343.554 72.1619 341.238 72.1619V74.1619ZM346.198 75.2041C347.429 75.8768 348.263 76.8042 348.749 77.9988L350.602 77.2454C349.932 75.5991 348.768 74.3296 347.158 73.4492L346.198 75.2041ZM348.749 77.9988C349.24 79.2073 349.372 80.6782 349.073 82.4561L351.045 82.7881C351.39 80.7403 351.265 78.8778 350.602 77.2454L348.749 77.9988ZM349.072 82.4617C348.783 84.2404 348.154 85.7342 347.206 86.9709L348.793 88.1882C349.965 86.6597 350.71 84.8485 351.046 82.7826L349.072 82.4617ZM347.203 86.9743C346.261 88.2131 345.027 89.1762 343.476 89.8607L344.284 91.6904C346.123 90.8787 347.635 89.7111 348.795 88.1847L347.203 86.9743ZM343.48 89.8588C341.935 90.5323 340.11 90.8835 337.985 90.8835V92.8835C340.329 92.8835 342.435 92.496 344.279 91.6923L343.48 89.8588ZM337.985 90.8835H330.286V92.8835H337.985V90.8835ZM331.272 92.0512L332.096 87.2074L330.124 86.8721L329.3 91.7158L331.272 92.0512ZM331.11 88.0397H337.857V86.0397H331.11V88.0397ZM337.857 88.0397C339.146 88.0397 340.301 87.8628 341.291 87.4732L340.559 85.612C339.864 85.8852 338.973 86.0397 337.857 86.0397V88.0397ZM341.291 87.4732C342.287 87.0817 343.112 86.4834 343.727 85.6672L342.13 84.4635C341.76 84.954 341.249 85.3406 340.559 85.612L341.291 87.4732ZM343.727 85.6672C344.335 84.8605 344.713 83.8868 344.895 82.785L342.922 82.4593C342.782 83.3082 342.506 83.9633 342.13 84.4635L343.727 85.6672ZM344.896 82.7756C345.066 81.6828 345.013 80.663 344.649 79.7724L342.798 80.5287C342.983 80.9828 343.053 81.6107 342.92 82.4686L344.896 82.7756ZM344.651 79.7769C344.274 78.8396 343.581 78.1476 342.651 77.7009L341.785 79.5036C342.314 79.7577 342.624 80.0978 342.796 80.5241L344.651 79.7769ZM342.651 77.7009C341.738 77.2622 340.612 77.0767 339.334 77.0767V79.0767C340.443 79.0767 341.239 79.2415 341.785 79.5036L342.651 77.7009ZM339.334 77.0767H335.059V79.0767H339.334V77.0767ZM334.072 77.9121L330.038 102.088L332.011 102.417L336.045 78.2413L334.072 77.9121ZM331.025 101.253H325.045V103.253H331.025V101.253ZM341.88 89.3838L346.908 102.608L348.778 101.897L343.749 88.673L341.88 89.3838ZM347.843 101.253H341.224V103.253H347.843V101.253ZM342.162 101.906L337.275 88.6818L335.399 89.375L340.286 102.599L342.162 101.906ZM336.337 90.0284H342.815V88.0284H336.337V90.0284ZM358.945 78.1193L357.959 77.9553L357.765 79.1193H358.945V78.1193ZM359.769 73.1619V72.1619H358.921L358.782 72.998L359.769 73.1619ZM383.547 73.1619L384.533 73.3286L384.731 72.1619H383.547V73.1619ZM382.709 78.1193V79.1193H383.554L383.695 78.286L382.709 78.1193ZM373.789 78.1193V77.1193H372.941L372.802 77.9561L373.789 78.1193ZM369.797 102.253V103.253H370.646L370.784 102.416L369.797 102.253ZM363.86 102.253L362.873 102.089L362.68 103.253H363.86V102.253ZM367.866 78.1193L368.852 78.283L369.045 77.1193H367.866V78.1193ZM359.932 78.2832L360.755 73.3258L358.782 72.998L357.959 77.9553L359.932 78.2832ZM359.769 74.1619H383.547V72.1619H359.769V74.1619ZM382.561 72.9952L381.723 77.9526L383.695 78.286L384.533 73.3286L382.561 72.9952ZM382.709 77.1193H373.789V79.1193H382.709V77.1193ZM372.802 77.9561L368.811 102.09L370.784 102.416L374.775 78.2825L372.802 77.9561ZM369.797 101.253H363.86V103.253H369.797V101.253ZM364.846 102.417L368.852 78.283L366.879 77.9555L362.873 102.089L364.846 102.417ZM367.866 77.1193H358.945V79.1193H367.866V77.1193ZM401.345 102.253L400.358 102.089L400.165 103.253H401.345V102.253ZM406.174 73.1619V72.1619H405.327L405.188 72.9981L406.174 73.1619ZM425.649 73.1619L426.635 73.3286L426.832 72.1619H425.649V73.1619ZM424.811 78.1193V79.1193H425.656L425.797 78.286L424.811 78.1193ZM411.33 78.1193V77.1193H410.481L410.344 77.9574L411.33 78.1193ZM410.166 85.2216L409.179 85.0597L408.988 86.2216H410.166V85.2216ZM422.637 85.2216L423.624 85.386L423.818 84.2216H422.637V85.2216ZM421.813 90.1647V91.1647H422.661L422.8 90.3291L421.813 90.1647ZM409.328 90.1647V89.1647H408.478L408.341 90.0035L409.328 90.1647ZM408.163 97.2954L407.176 97.1342L406.986 98.2954H408.163V97.2954ZM421.714 97.2954L422.7 97.4594L422.894 96.2954H421.714V97.2954ZM420.89 102.253V103.253H421.738L421.877 102.417L420.89 102.253ZM402.331 102.417L407.161 73.3257L405.188 72.9981L400.358 102.089L402.331 102.417ZM406.174 74.1619H425.649V72.1619H406.174V74.1619ZM424.663 72.9952L423.825 77.9526L425.797 78.286L426.635 73.3286L424.663 72.9952ZM424.811 77.1193H411.33V79.1193H424.811V77.1193ZM410.344 77.9574L409.179 85.0597L411.152 85.3834L412.317 78.2811L410.344 77.9574ZM410.166 86.2216H422.637V84.2216H410.166V86.2216ZM421.651 85.0572L420.827 90.0003L422.8 90.3291L423.624 85.386L421.651 85.0572ZM421.813 89.1647H409.328V91.1647H421.813V89.1647ZM408.341 90.0035L407.176 97.1342L409.15 97.4566L410.315 90.3259L408.341 90.0035ZM408.163 98.2954H421.714V96.2954H408.163V98.2954ZM420.727 97.1315L419.904 102.089L421.877 102.417L422.7 97.4594L420.727 97.1315ZM420.89 101.253H401.345V103.253H420.89V101.253ZM440.554 73.1619L441.474 72.7695L441.215 72.1619H440.554V73.1619ZM444.844 83.2187L443.924 83.6111L444.183 84.2187H444.844V83.2187ZM445.071 83.2187V84.2187H445.567L445.867 83.8245L445.071 83.2187ZM452.727 73.1619V72.1619H452.232L451.932 72.5562L452.727 73.1619ZM459.702 73.1619L460.492 73.7747L461.743 72.1619H459.702V73.1619ZM448.423 87.7074L447.633 87.0946L447.263 87.5723L447.513 88.1223L448.423 87.7074ZM455.057 102.253V103.253H456.612L455.967 101.838L455.057 102.253ZM448.281 102.253L447.365 102.653L447.627 103.253H448.281V102.253ZM443.892 92.2102L444.808 91.8097L444.546 91.2102H443.892V92.2102ZM443.665 92.2102V91.2102H443.172L442.872 91.6004L443.665 92.2102ZM435.938 102.253V103.253H436.43L436.73 102.863L435.938 102.253ZM428.949 102.253L428.166 101.631L426.878 103.253H428.949V102.253ZM440.497 87.7074L441.28 88.3292L441.659 87.8517L441.409 87.2961L440.497 87.7074ZM433.935 73.1619V72.1619H432.386L433.023 73.5732L433.935 73.1619ZM439.634 73.5542L443.924 83.6111L445.764 82.8264L441.474 72.7695L439.634 73.5542ZM444.844 84.2187H445.071V82.2187H444.844V84.2187ZM445.867 83.8245L453.523 73.7676L451.932 72.5562L444.275 82.613L445.867 83.8245ZM452.727 74.1619H459.702V72.1619H452.727V74.1619ZM458.911 72.5491L447.633 87.0946L449.214 88.3201L460.492 73.7747L458.911 72.5491ZM447.513 88.1223L454.147 102.668L455.967 101.838L449.333 87.2924L447.513 88.1223ZM455.057 101.253H448.281V103.253H455.057V101.253ZM449.198 101.852L444.808 91.8097L442.976 92.6107L447.365 102.653L449.198 101.852ZM443.892 91.2102H443.665V93.2102H443.892V91.2102ZM442.872 91.6004L435.145 101.643L436.73 102.863L444.457 92.82L442.872 91.6004ZM435.938 101.253H428.949V103.253H435.938V101.253ZM429.732 102.875L441.28 88.3292L439.714 87.0856L428.166 101.631L429.732 102.875ZM441.409 87.2961L434.846 72.7506L433.023 73.5732L439.586 88.1186L441.409 87.2961ZM433.935 74.1619H440.554V72.1619H433.935V74.1619ZM463.396 102.253L462.41 102.089L462.216 103.253H463.396V102.253ZM468.226 73.1619V72.1619H467.378L467.239 72.9981L468.226 73.1619ZM485.016 74.4261L484.503 75.2846L484.507 75.2871L485.016 74.4261ZM487.984 77.892L488.918 77.533L488.918 77.533L487.984 77.892ZM488.354 82.9772L487.367 82.8113L487.366 82.8176L488.354 82.9772ZM486.28 88.0767L485.472 87.4876L485.469 87.491L486.28 88.0767ZM482.118 91.5142L481.685 90.6129L481.683 90.6138L482.118 91.5142ZM468.893 92.75L467.907 92.5875L467.715 93.75H468.893V92.75ZM469.689 87.9204V86.9204H468.84L468.702 87.7579L469.689 87.9204ZM481.194 85.5625L480.369 84.9982L480.367 85.0004L481.194 85.5625ZM482.203 82.9772L483.19 83.1401L483.191 83.1293L482.203 82.9772ZM482.033 80.4062L481.089 80.7371L481.093 80.748L482.033 80.4062ZM480.569 78.7017L480.068 79.5671L480.077 79.572L480.569 78.7017ZM473.41 78.0767V77.0767H472.563L472.424 77.9121L473.41 78.0767ZM469.376 102.253V103.253H470.223L470.363 102.417L469.376 102.253ZM464.383 102.417L469.212 73.3257L467.239 72.9981L462.41 102.089L464.383 102.417ZM468.226 74.1619H479.589V72.1619H468.226V74.1619ZM479.589 74.1619C481.675 74.1619 483.291 74.5609 484.503 75.2846L485.528 73.5676C483.918 72.6057 481.917 72.1619 479.589 72.1619V74.1619ZM484.507 75.2871C485.731 76.0102 486.567 76.9921 487.051 78.251L488.918 77.533C488.265 75.8374 487.122 74.5087 485.524 73.5651L484.507 75.2871ZM487.051 78.251C487.542 79.5272 487.666 81.0353 487.367 82.8113L489.34 83.1432C489.685 81.0935 489.563 79.2113 488.918 77.533L487.051 78.251ZM487.366 82.8176C487.077 84.6064 486.442 86.1565 485.472 87.4876L487.088 88.6658C488.258 87.0612 489.005 85.2117 489.341 83.1369L487.366 82.8176ZM485.469 87.491C484.511 88.817 483.256 89.8574 481.685 90.6129L482.551 92.4155C484.407 91.5232 485.927 90.272 487.09 88.6624L485.469 87.491ZM481.683 90.6138C480.137 91.361 478.316 91.75 476.194 91.75V93.75C478.562 93.75 480.69 93.315 482.553 92.4145L481.683 90.6138ZM476.194 91.75H468.893V93.75H476.194V91.75ZM469.88 92.9125L470.676 88.0829L468.702 87.7579L467.907 92.5875L469.88 92.9125ZM469.689 88.9204H476.038V86.9204H469.689V88.9204ZM476.038 88.9204C477.362 88.9204 478.556 88.6931 479.584 88.1957L478.714 86.3951C478.019 86.7311 477.139 86.9204 476.038 86.9204V88.9204ZM479.584 88.1957C480.592 87.7083 481.414 87.0187 482.022 86.1245L480.367 85.0004C479.971 85.5835 479.429 86.0492 478.714 86.3951L479.584 88.1957ZM482.02 86.1268C482.621 85.2476 483.007 84.2462 483.19 83.1401L481.216 82.8144C481.077 83.6591 480.791 84.3811 480.369 84.9982L482.02 86.1268ZM483.191 83.1293C483.361 82.0244 483.309 80.9902 482.972 80.0645L481.093 80.748C481.286 81.2806 481.348 81.9604 481.215 82.8252L483.191 83.1293ZM482.976 80.0753C482.635 79.1008 481.976 78.3487 481.062 77.8313L480.077 79.572C480.602 79.869 480.919 80.2533 481.089 80.7371L482.976 80.0753ZM481.071 77.8362C480.145 77.3007 478.991 77.0767 477.686 77.0767V79.0767C478.786 79.0767 479.554 79.2693 480.068 79.5671L481.071 77.8362ZM477.686 77.0767H473.41V79.0767H477.686V77.0767ZM472.424 77.9121L468.39 102.088L470.363 102.417L474.397 78.2413L472.424 77.9121ZM469.376 101.253H463.396V103.253H469.376V101.253ZM522.804 88.0909L523.791 88.2562L523.791 88.2534L522.804 88.0909ZM519.736 96.0028L518.918 95.4277L518.917 95.4301L519.736 96.0028ZM514.196 100.96L514.656 101.848L514.659 101.847L514.196 100.96ZM500.361 100.847L499.824 101.69L499.827 101.692L500.361 100.847ZM496.228 95.6193L495.29 95.967L495.291 95.9704L496.228 95.6193ZM495.759 87.3806L496.746 87.5432L496.746 87.5431L495.759 87.3806ZM498.799 79.4545L497.98 78.881L497.978 78.8834L498.799 79.4545ZM504.367 74.4829L504.828 75.3703L504.829 75.3696L504.367 74.4829ZM518.216 74.5824L517.677 75.4246L517.679 75.4258L518.216 74.5824ZM522.336 79.838L521.397 80.1832L521.398 80.1845L522.336 79.838ZM516.853 87.3806L517.839 87.5429L517.839 87.5428L516.853 87.3806ZM516.796 82.2812L515.828 82.5331L515.83 82.5393L516.796 82.2812ZM514.821 79.142L514.225 79.9449L514.225 79.9449L514.821 79.142ZM506.881 79.2556L507.392 80.1153L507.394 80.1142L506.881 79.2556ZM503.571 82.6647L504.427 83.1824L504.428 83.18L503.571 82.6647ZM501.711 88.0909L502.696 88.2605L502.698 88.2489L501.711 88.0909ZM501.753 93.2045L500.789 93.4704L500.79 93.4722L501.753 93.2045ZM503.77 96.3011L503.183 97.1105L503.188 97.1143L503.77 96.3011ZM511.668 96.1875L512.177 97.0483L512.179 97.0472L511.668 96.1875ZM514.978 92.8068L515.832 93.3269L515.833 93.3245L514.978 92.8068ZM521.818 87.9255C521.317 90.9116 520.342 93.4023 518.918 95.4277L520.554 96.5779C522.18 94.2662 523.25 91.4823 523.791 88.2562L521.818 87.9255ZM518.917 95.4301C517.486 97.4772 515.759 99.0173 513.734 100.074L514.659 101.847C516.99 100.63 518.956 98.8655 520.556 96.5755L518.917 95.4301ZM513.737 100.072C511.704 101.124 509.519 101.651 507.165 101.651V103.651C509.831 103.651 512.333 103.05 514.656 101.848L513.737 100.072ZM507.165 101.651C504.689 101.651 502.613 101.087 500.895 100.001L499.827 101.692C501.916 103.012 504.376 103.651 507.165 103.651V101.651ZM500.898 100.003C499.192 98.9165 497.946 97.3541 497.164 95.2682L495.291 95.9704C496.214 98.4299 497.724 100.352 499.824 101.69L500.898 100.003ZM497.165 95.2716C496.4 93.2086 496.234 90.6485 496.746 87.5432L494.772 87.2181C494.223 90.5521 494.37 93.4845 495.29 95.967L497.165 95.2716ZM496.746 87.5431C497.237 84.5568 498.204 82.0607 499.62 80.0256L497.978 78.8834C496.363 81.2044 495.303 83.9924 494.772 87.2182L496.746 87.5431ZM499.618 80.028C501.058 77.9713 502.794 76.4267 504.828 75.3703L503.906 73.5955C501.564 74.8119 499.589 76.5817 497.98 78.8811L499.618 80.028ZM504.829 75.3696C506.881 74.2998 509.084 73.7642 511.455 73.7642V71.7642C508.769 71.7642 506.247 72.3744 503.904 73.5963L504.829 75.3696ZM511.455 73.7642C513.909 73.7642 515.969 74.3313 517.677 75.4246L518.755 73.7401C516.676 72.4091 514.228 71.7642 511.455 71.7642V73.7642ZM517.679 75.4258C519.382 76.5104 520.623 78.0792 521.397 80.1832L523.274 79.4929C522.362 77.0135 520.857 75.0785 518.754 73.7389L517.679 75.4258ZM521.398 80.1845C522.163 82.2579 522.329 84.8234 521.818 87.9284L523.791 88.2534C524.34 84.9189 524.194 81.9826 523.274 79.4916L521.398 80.1845ZM517.839 87.5428C518.185 85.4413 518.18 83.5883 517.762 82.0231L515.83 82.5393C516.15 83.7393 516.184 85.2859 515.866 87.2185L517.839 87.5428ZM517.764 82.0293C517.358 80.4717 516.592 79.211 515.418 78.3392L514.225 79.9449C514.964 80.4935 515.514 81.3256 515.828 82.5331L517.764 82.0293ZM515.418 78.3392C514.255 77.476 512.836 77.0767 511.228 77.0767V79.0767C512.498 79.0767 513.475 79.3875 514.225 79.9449L515.418 78.3392ZM511.228 77.0767C509.472 77.0767 507.845 77.5155 506.368 78.3971L507.394 80.1142C508.55 79.4238 509.821 79.0767 511.228 79.0767V77.0767ZM506.37 78.396C504.902 79.2687 503.686 80.5328 502.714 82.1494L504.428 83.18C505.256 81.8042 506.247 80.7956 507.392 80.1153L506.37 78.396ZM502.716 82.147C501.736 83.7672 501.08 85.7047 500.723 87.9329L502.698 88.2489C503.023 86.2157 503.608 84.5358 504.427 83.1824L502.716 82.147ZM500.725 87.9213C500.36 90.0419 500.358 91.9064 500.789 93.4704L502.717 92.9386C502.391 91.7564 502.36 90.2118 502.696 88.2605L500.725 87.9213ZM500.79 93.4722C501.217 95.0116 502.002 96.2533 503.183 97.1105L504.358 95.4917C503.607 94.9474 503.047 94.1247 502.717 92.9369L500.79 93.4722ZM503.188 97.1143C504.357 97.9509 505.775 98.338 507.378 98.338V96.338C506.103 96.338 505.115 96.0339 504.352 95.4879L503.188 97.1143ZM507.378 98.338C509.113 98.338 510.72 97.9099 512.177 97.0483L511.159 95.3267C510.022 95.9991 508.769 96.338 507.378 96.338V98.338ZM512.179 97.0472C513.644 96.1763 514.859 94.9243 515.832 93.3269L514.124 92.2867C513.297 93.6438 512.305 94.6456 511.157 95.3278L512.179 97.0472ZM515.833 93.3245C516.813 91.7058 517.473 89.7699 517.839 87.5429L515.866 87.2184C515.531 89.2528 514.942 90.9343 514.122 92.2891L515.833 93.3245Z" fill="#5B0B3B"/>
<g filter="url(#filter0_d_91_45)">
<path d="M174.458 87.2919C179.175 148.106 116.244 166.571 72.545 173.211C6.73434 183.21 -1.75683 118.283 6.73434 70.2769C18.3922 4.3667 47.2065 0.225388 61.5373 0.225388C97.2631 -3.02943 169.945 29.112 174.458 87.2919Z" fill="#FF8833"/>
</g>
<path d="M103.597 63.9845C103.597 55.3475 96.3202 48.3461 87.3434 48.3461C78.3665 48.3461 71.0896 55.3475 71.0896 63.9845C71.0896 72.6215 78.3665 79.6229 87.3434 79.6229C96.3202 79.6229 103.597 72.6215 103.597 63.9845ZM83.5491 87.6213C73.504 81.7048 57.2333 80.079 49.0454 79.6311C46.2942 79.4812 44 81.4979 44 84.044V120.338C44 122.673 45.9623 124.619 48.485 124.745C55.8771 125.118 70.8323 126.484 81.1686 131.494C82.7551 132.262 84.6361 131.215 84.6361 129.56V89.4882C84.6344 88.7274 84.2433 88.0302 83.5491 87.6213ZM125.641 79.6311C117.455 80.0774 101.183 81.7048 91.1393 87.6213C90.4451 88.0302 90.054 88.7551 90.054 89.5158V129.555C90.054 131.215 91.9401 132.264 93.5316 131.494C103.866 126.489 118.813 125.123 126.203 124.75C128.726 124.622 130.688 122.676 130.688 120.341V84.044C130.687 81.4979 128.393 79.4812 125.641 79.6311Z" fill="#5B0B3B"/>
<path d="M126.54 58.4257C124.895 40.1302 108.771 26.0247 89.693 26.1773C88.9755 26.183 88.4128 26.7635 88.4495 27.4529L88.6449 31.1182C88.6795 31.7759 89.2506 32.2891 89.9352 32.2865C105.586 32.2334 118.773 43.7717 120.196 58.7711C120.258 59.427 120.843 59.925 121.527 59.8966L125.338 59.7377C126.054 59.7072 126.601 59.1135 126.54 58.4257ZM113.931 59.0692C112.613 47.4301 102.372 38.4784 90.2176 38.3147C89.4893 38.3048 88.9129 38.8896 88.9523 39.5886L89.1583 43.2653C89.1943 43.9057 89.7381 44.4228 90.4057 44.4393C99.179 44.6529 106.53 51.1027 107.576 59.4668C107.656 60.1047 108.242 60.5773 108.908 60.5507L112.732 60.4009C113.46 60.3732 114.01 59.7648 113.931 59.0692Z" fill="#5B0B3B"/>
<defs>
<filter id="filter0_d_91_45" x="0" y="0" width="178.708" height="182.241" filterUnits="userSpaceOnUse" color-interpolation-filters="sRGB">
<feFlood flood-opacity="0" result="BackgroundImageFix"/>
<feColorMatrix in="SourceAlpha" type="matrix" values="0 0 0 0 0 0 0 0 0 0 0 0 0 0 0 0 0 0 127 0" result="hardAlpha"/>
<feOffset dy="4"/>
<feGaussianBlur stdDeviation="2"/>
<feComposite in2="hardAlpha" operator="out"/>
<feColorMatrix type="matrix" values="0 0 0 0 0 0 0 0 0 0 0 0 0 0 0 0 0 0 0.25 0"/>
<feBlend mode="normal" in2="BackgroundImageFix" result="effect1_dropShadow_91_45"/>
<feBlend mode="normal" in="SourceGraphic" in2="effect1_dropShadow_91_45" result="shape"/>
</filter>
</defs>
</svg>
